o Torus
v 1.399999976158142 3.5491584155638067 0
v 0.699999988079071 4.761594018705591 0
v -0.699999988079071 4.761594018705591 0
v -1.399999976158142 3.5491584155638067 0
v -0.699999988079071 2.336722812422022 0
v 0.699999988079071 2.336722812422022 0
v 1.399999976158142 3.5491584155638063 0
v 1.282842755317688 3.5491584155638067 0.2828427255153656
v 0.641421377658844 4.66013284660171 0.2828427255153656
v -0.641421377658844 4.66013284660171 0.2828427255153656
v -1.282842755317688 3.5491584155638067 0.2828427255153656
v -0.641421377658844 2.438183984525904 0.2828427255153656
v 0.641421377658844 2.438183984525904 0.2828427255153656
v 1.282842755317688 3.5491584155638063 0.2828427255153656
v 1 3.5491584155638067 0.4000000059604645
v 0.5 4.415183803804621 0.4000000059604645
v -0.5 4.415183803804621 0.4000000059604645
v -1 3.5491584155638067 0.4000000059604645
v -0.5 2.6831330273229925 0.4000000059604645
v 0.5 2.6831330273229925 0.4000000059604645
v 1 3.5491584155638063 0.4000000059604645
v 0.7171573042869568 3.5491584155638067 0.2828427255153656
v 0.3585786521434784 4.170234820612177 0.2828427255153656
v -0.3585786521434784 4.170234820612177 0.2828427255153656
v -0.7171573042869568 3.5491584155638067 0.2828427255153656
v -0.3585786521434784 2.9280820105154364 0.2828427255153656
v 0.3585786521434784 2.9280820105154364 0.2828427255153656
v 0.7171573042869568 3.5491584155638067 0.2828427255153656
v 0.6000000238418579 3.5491584155638067 4.8985870794684264e-17
v 0.30000001192092896 4.068773648508295 4.8985870794684264e-17
v -0.30000001192092896 4.068773648508295 4.8985870794684264e-17
v -0.6000000238418579 3.5491584155638067 4.8985870794684264e-17
v -0.30000001192092896 3.029543182619318 4.8985870794684264e-17
v 0.30000001192092896 3.029543182619318 4.8985870794684264e-17
v 0.6000000238418579 3.5491584155638067 4.8985870794684264e-17
v 0.7171573042869568 3.5491584155638067 -0.2828427255153656
v 0.3585786521434784 4.170234820612177 -0.2828427255153656
v -0.3585786521434784 4.170234820612177 -0.2828427255153656
v -0.7171573042869568 3.5491584155638067 -0.2828427255153656
v -0.3585786521434784 2.9280820105154364 -0.2828427255153656
v 0.3585786521434784 2.9280820105154364 -0.2828427255153656
v 0.7171573042869568 3.5491584155638067 -0.2828427255153656
v 1 3.5491584155638067 -0.4000000059604645
v 0.5 4.415183803804621 -0.4000000059604645
v -0.5 4.415183803804621 -0.4000000059604645
v -1 3.5491584155638067 -0.4000000059604645
v -0.5 2.6831330273229925 -0.4000000059604645
v 0.5 2.6831330273229925 -0.4000000059604645
v 1 3.5491584155638063 -0.4000000059604645
v 1.282842755317688 3.5491584155638067 -0.2828427255153656
v 0.641421377658844 4.66013284660171 -0.2828427255153656
v -0.641421377658844 4.66013284660171 -0.2828427255153656
v -1.282842755317688 3.5491584155638067 -0.2828427255153656
v -0.641421377658844 2.438183984525904 -0.2828427255153656
v 0.641421377658844 2.438183984525904 -0.2828427255153656
v 1.282842755317688 3.5491584155638063 -0.2828427255153656
v 1.399999976158142 3.5491584155638067 -9.797174158936853e-17
v 0.699999988079071 4.761594018705591 -9.797174158936853e-17
v -0.699999988079071 4.761594018705591 -9.797174158936853e-17
v -1.399999976158142 3.5491584155638067 -9.797174158936853e-17
v -0.699999988079071 2.336722812422022 -9.797174158936853e-17
v 0.699999988079071 2.336722812422022 -9.797174158936853e-17
v 1.399999976158142 3.5491584155638063 -9.797174158936853e-17
vt 0 0
vt 0.1666666716337204 0
vt 0.3333333432674408 0
vt 0.5 0
vt 0.6666666865348816 0
vt 0.8333333134651184 0
vt 1 0
vt 0 0.125
vt 0.1666666716337204 0.125
vt 0.3333333432674408 0.125
vt 0.5 0.125
vt 0.6666666865348816 0.125
vt 0.8333333134651184 0.125
vt 1 0.125
vt 0 0.25
vt 0.1666666716337204 0.25
vt 0.3333333432674408 0.25
vt 0.5 0.25
vt 0.6666666865348816 0.25
vt 0.8333333134651184 0.25
vt 1 0.25
vt 0 0.375
vt 0.1666666716337204 0.375
vt 0.3333333432674408 0.375
vt 0.5 0.375
vt 0.6666666865348816 0.375
vt 0.8333333134651184 0.375
vt 1 0.375
vt 0 0.5
vt 0.1666666716337204 0.5
vt 0.3333333432674408 0.5
vt 0.5 0.5
vt 0.6666666865348816 0.5
vt 0.8333333134651184 0.5
vt 1 0.5
vt 0 0.625
vt 0.1666666716337204 0.625
vt 0.3333333432674408 0.625
vt 0.5 0.625
vt 0.6666666865348816 0.625
vt 0.8333333134651184 0.625
vt 1 0.625
vt 0 0.75
vt 0.1666666716337204 0.75
vt 0.3333333432674408 0.75
vt 0.5 0.75
vt 0.6666666865348816 0.75
vt 0.8333333134651184 0.75
vt 1 0.75
vt 0 0.875
vt 0.1666666716337204 0.875
vt 0.3333333432674408 0.875
vt 0.5 0.875
vt 0.6666666865348816 0.875
vt 0.8333333134651184 0.875
vt 1 0.875
vt 0 1
vt 0.1666666716337204 1
vt 0.3333333432674408 1
vt 0.5 1
vt 0.6666666865348816 1
vt 0.8333333134651184 1
vt 1 1
vn 1 0 0
vn 0.5000000067305869 0.8660253998985324 0
vn -0.5000000067305869 0.8660253998985324 0
vn -1 1.2246468525851679e-16 0
vn -0.5000000067305869 -0.8660253998985324 0
vn 0.5000000067305869 -0.8660253998985324 0
vn 1 -2.4492937051703357e-16 0
vn 0.7071067811865476 0 0.7071067811865476
vn 0.3535533834993082 0.6123724561743086 0.7071067669986164
vn -0.3535533834993082 0.6123724561743086 0.7071067669986164
vn -0.7071067811865476 8.659560751628624e-17 0.7071067811865476
vn -0.3535533834993082 -0.6123724561743086 0.7071067669986164
vn 0.3535533834993082 -0.6123724561743086 0.7071067669986164
vn 0.7071067811865476 -1.7319121503257247e-16 0.7071067811865476
vn 0 0 1
vn 0 0 1
vn 0 0 1
vn 0 0 1
vn 0 0 1
vn 0 0 1
vn 0 0 1
vn -0.7071067811865476 0 0.7071067811865476
vn -0.3535533834993082 -0.6123724561743086 0.7071067669986164
vn 0.3535533834993082 -0.6123724561743086 0.7071067669986164
vn 0.7071067811865476 -8.659560751628624e-17 0.7071067811865476
vn 0.3535533834993082 0.6123724561743086 0.7071067669986164
vn -0.3535533834993082 0.6123724561743086 0.7071067669986164
vn -0.7071067811865476 1.7319121503257247e-16 0.7071067811865476
vn -1 0 1.2246468525851679e-16
vn -0.5000000067305869 -0.8660253998985324 1.224646869070352e-16
vn 0.5000000067305869 -0.8660253998985324 1.224646869070352e-16
vn 1 -1.2246468525851679e-16 1.2246468525851679e-16
vn 0.5000000067305869 0.8660253998985324 1.224646869070352e-16
vn -0.5000000067305869 0.8660253998985324 1.224646869070352e-16
vn -1 2.4492937051703357e-16 1.2246468525851679e-16
vn -0.7071067811865476 0 -0.7071067811865476
vn -0.3535533834993082 -0.6123724561743086 -0.7071067669986164
vn 0.3535533834993082 -0.6123724561743086 -0.7071067669986164
vn 0.7071067811865476 -8.659560751628624e-17 -0.7071067811865476
vn 0.3535533834993082 0.6123724561743086 -0.7071067669986164
vn -0.3535533834993082 0.6123724561743086 -0.7071067669986164
vn -0.7071067811865476 1.7319121503257247e-16 -0.7071067811865476
vn -2.7755575615628914e-16 0 -1
vn -2.7755575615628914e-16 -2.7755575615628914e-16 -1
vn 1.3877787807814457e-16 -2.7755575615628914e-16 -1
vn 2.7755575615628914e-16 -6.162975822039155e-32 -1
vn 2.7755575615628914e-16 2.7755575615628914e-16 -1
vn -2.7755575615628914e-16 2.7755575615628914e-16 -1
vn -2.7755575615628914e-16 1.232595164407831e-31 -1
vn 0.7071067811865476 0 -0.7071067811865476
vn 0.3535533834993082 0.6123724561743086 -0.7071067669986164
vn -0.3535533834993082 0.6123724561743086 -0.7071067669986164
vn -0.7071067811865476 8.659560751628624e-17 -0.7071067811865476
vn -0.3535533834993082 -0.6123724561743086 -0.7071067669986164
vn 0.3535533834993082 -0.6123724561743086 -0.7071067669986164
vn 0.7071067811865476 -1.7319121503257247e-16 -0.7071067811865476
vn 1 0 -2.4492937051703357e-16
vn 0.5000000067305869 0.8660253998985324 -2.449293738140704e-16
vn -0.5000000067305869 0.8660253998985324 -2.449293738140704e-16
vn -1 1.2246468525851679e-16 -2.4492937051703357e-16
vn -0.5000000067305869 -0.8660253998985324 -2.449293738140704e-16
vn 0.5000000067305869 -0.8660253998985324 -2.449293738140704e-16
vn 1 -2.4492937051703357e-16 -2.4492937051703357e-16
f 8/8/8 1/1/1 9/9/9
f 1/1/1 2/2/2 9/9/9
f 9/9/9 2/2/2 10/10/10
f 2/2/2 3/3/3 10/10/10
f 10/10/10 3/3/3 11/11/11
f 3/3/3 4/4/4 11/11/11
f 11/11/11 4/4/4 12/12/12
f 4/4/4 5/5/5 12/12/12
f 12/12/12 5/5/5 13/13/13
f 5/5/5 6/6/6 13/13/13
f 13/13/13 6/6/6 14/14/14
f 6/6/6 7/7/7 14/14/14
f 15/15/15 8/8/8 16/16/16
f 8/8/8 9/9/9 16/16/16
f 16/16/16 9/9/9 17/17/17
f 9/9/9 10/10/10 17/17/17
f 17/17/17 10/10/10 18/18/18
f 10/10/10 11/11/11 18/18/18
f 18/18/18 11/11/11 19/19/19
f 11/11/11 12/12/12 19/19/19
f 19/19/19 12/12/12 20/20/20
f 12/12/12 13/13/13 20/20/20
f 20/20/20 13/13/13 21/21/21
f 13/13/13 14/14/14 21/21/21
f 22/22/22 15/15/15 23/23/23
f 15/15/15 16/16/16 23/23/23
f 23/23/23 16/16/16 24/24/24
f 16/16/16 17/17/17 24/24/24
f 24/24/24 17/17/17 25/25/25
f 17/17/17 18/18/18 25/25/25
f 25/25/25 18/18/18 26/26/26
f 18/18/18 19/19/19 26/26/26
f 26/26/26 19/19/19 27/27/27
f 19/19/19 20/20/20 27/27/27
f 27/27/27 20/20/20 28/28/28
f 20/20/20 21/21/21 28/28/28
f 29/29/29 22/22/22 30/30/30
f 22/22/22 23/23/23 30/30/30
f 30/30/30 23/23/23 31/31/31
f 23/23/23 24/24/24 31/31/31
f 31/31/31 24/24/24 32/32/32
f 24/24/24 25/25/25 32/32/32
f 32/32/32 25/25/25 33/33/33
f 25/25/25 26/26/26 33/33/33
f 33/33/33 26/26/26 34/34/34
f 26/26/26 27/27/27 34/34/34
f 34/34/34 27/27/27 35/35/35
f 27/27/27 28/28/28 35/35/35
f 36/36/36 29/29/29 37/37/37
f 29/29/29 30/30/30 37/37/37
f 37/37/37 30/30/30 38/38/38
f 30/30/30 31/31/31 38/38/38
f 38/38/38 31/31/31 39/39/39
f 31/31/31 32/32/32 39/39/39
f 39/39/39 32/32/32 40/40/40
f 32/32/32 33/33/33 40/40/40
f 40/40/40 33/33/33 41/41/41
f 33/33/33 34/34/34 41/41/41
f 41/41/41 34/34/34 42/42/42
f 34/34/34 35/35/35 42/42/42
f 43/43/43 36/36/36 44/44/44
f 36/36/36 37/37/37 44/44/44
f 44/44/44 37/37/37 45/45/45
f 37/37/37 38/38/38 45/45/45
f 45/45/45 38/38/38 46/46/46
f 38/38/38 39/39/39 46/46/46
f 46/46/46 39/39/39 47/47/47
f 39/39/39 40/40/40 47/47/47
f 47/47/47 40/40/40 48/48/48
f 40/40/40 41/41/41 48/48/48
f 48/48/48 41/41/41 49/49/49
f 41/41/41 42/42/42 49/49/49
f 50/50/50 43/43/43 51/51/51
f 43/43/43 44/44/44 51/51/51
f 51/51/51 44/44/44 52/52/52
f 44/44/44 45/45/45 52/52/52
f 52/52/52 45/45/45 53/53/53
f 45/45/45 46/46/46 53/53/53
f 53/53/53 46/46/46 54/54/54
f 46/46/46 47/47/47 54/54/54
f 54/54/54 47/47/47 55/55/55
f 47/47/47 48/48/48 55/55/55
f 55/55/55 48/48/48 56/56/56
f 48/48/48 49/49/49 56/56/56
f 57/57/57 50/50/50 58/58/58
f 50/50/50 51/51/51 58/58/58
f 58/58/58 51/51/51 59/59/59
f 51/51/51 52/52/52 59/59/59
f 59/59/59 52/52/52 60/60/60
f 52/52/52 53/53/53 60/60/60
f 60/60/60 53/53/53 61/61/61
f 53/53/53 54/54/54 61/61/61
f 61/61/61 54/54/54 62/62/62
f 54/54/54 55/55/55 62/62/62
f 62/62/62 55/55/55 63/63/63
f 55/55/55 56/56/56 63/63/63
